<svg width="9" height="8" viewBox="0 0 9 8" fill="none" xmlns="http://www.w3.org/2000/svg">
<path fill-rule="evenodd" clip-rule="evenodd" d="M2 1C2 1.55229 1.55228 2 1 2C0.447715 2 0 1.55229 0 1C0 0.447717 0.447715 1.90735e-06 1 1.90735e-06C1.55228 1.90735e-06 2 0.447717 2 1ZM2 4C2 4.55229 1.55228 5 1 5C0.447715 5 0 4.55229 0 4C0 3.44772 0.447715 3 1 3C1.55228 3 2 3.44772 2 4ZM1 8C1.55228 8 2 7.55229 2 7C2 6.44772 1.55228 6 1 6C0.447715 6 0 6.44772 0 7C0 7.55229 0.447715 8 1 8ZM3 7.5H9V6.5H3V7.5ZM3 4.5H9V3.5H3V4.5ZM3 1.5H9V0.500002H3V1.5Z" fill="white"/>
</svg>
