<svg width="18" height="15" viewBox="0 0 18 15" fill="none" xmlns="http://www.w3.org/2000/svg">
<path fill-rule="evenodd" clip-rule="evenodd" d="M8.11032 6.8634C7.75778 6.95234 7.38525 7 7 7C4.79086 7 3 5.433 3 3.5C3 1.567 4.79086 0 7 0C7.61503 0 8.19764 0.121455 8.71821 0.338448C7.24072 0.930213 6.21427 2.23522 6.21427 3.75C6.21427 5.04688 6.96665 6.19 8.11032 6.8634ZM0 14C0 14 0 7.5 7 7.5C8.24322 7.5 9.26564 7.70503 10.1065 8.04226C4.72612 8.22339 3.41926 12.1185 3.10184 14H0Z" fill="white"/>
<mask id="path-2-inside-1_72_62" fill="white">
<path fill-rule="evenodd" clip-rule="evenodd" d="M10.5 7.5C12.8669 7.5 14.7857 5.82107 14.7857 3.75C14.7857 1.67893 12.8669 0 10.5 0C8.13305 0 6.21427 1.67893 6.21427 3.75C6.21427 5.82107 8.13305 7.5 10.5 7.5ZM10.5 8.03571C3 8.03571 3 15 3 15H18C18 15 18 8.03571 10.5 8.03571Z"/>
</mask>
<path fill-rule="evenodd" clip-rule="evenodd" d="M10.5 7.5C12.8669 7.5 14.7857 5.82107 14.7857 3.75C14.7857 1.67893 12.8669 0 10.5 0C8.13305 0 6.21427 1.67893 6.21427 3.75C6.21427 5.82107 8.13305 7.5 10.5 7.5ZM10.5 8.03571C3 8.03571 3 15 3 15H18C18 15 18 8.03571 10.5 8.03571Z" fill="white"/>
<path d="M3 15L2.5 15L2.5 15.5H3V15ZM18 15V15.5H18.5L18.5 15L18 15ZM14.2857 3.75C14.2857 5.4843 12.6556 7 10.5 7V8C13.0783 8 15.2857 6.15784 15.2857 3.75H14.2857ZM10.5 0.5C12.6556 0.5 14.2857 2.0157 14.2857 3.75H15.2857C15.2857 1.34216 13.0783 -0.5 10.5 -0.5V0.5ZM6.71427 3.75C6.71427 2.0157 8.34439 0.5 10.5 0.5V-0.5C7.92171 -0.5 5.71427 1.34216 5.71427 3.75H6.71427ZM10.5 7C8.34439 7 6.71427 5.4843 6.71427 3.75H5.71427C5.71427 6.15784 7.92171 8 10.5 8V7ZM3 15C3.5 15 3.5 15.0002 3.5 15.0004C3.5 15.0005 3.5 15.0007 3.5 15.0007C3.5 15.0009 3.5 15.0009 3.5 15.0009C3.5 15.0007 3.5 15.0002 3.50001 14.9992C3.50003 14.9973 3.50006 14.9938 3.50015 14.9887C3.50033 14.9785 3.50071 14.962 3.50151 14.9397C3.50311 14.8951 3.50641 14.8271 3.51318 14.7391C3.52672 14.563 3.5541 14.3078 3.60932 14.0002C3.72015 13.3827 3.94094 12.5661 4.37773 11.7549C4.8131 10.9464 5.46038 10.1475 6.42724 9.54902C7.39269 8.95135 8.70524 8.53571 10.5 8.53571V7.53571C8.54476 7.53571 7.0448 7.99061 5.90088 8.69875C4.75837 9.40602 3.9994 10.3483 3.49726 11.2808C2.99656 12.2107 2.74859 13.1352 2.62505 13.8235C2.56308 14.1687 2.53187 14.4577 2.51612 14.6624C2.50824 14.7649 2.50421 14.8465 2.50215 14.9039C2.50112 14.9325 2.50059 14.9552 2.5003 14.9713C2.50016 14.9794 2.50009 14.9859 2.50005 14.9907C2.50003 14.9931 2.50001 14.9951 2.50001 14.9966C2.5 14.9974 2.5 14.9981 2.5 14.9986C2.5 14.9989 2.5 14.9993 2.5 14.9994C2.5 14.9997 2.5 15 3 15ZM18 14.5H3V15.5H18V14.5ZM10.5 8.53571C12.2948 8.53571 13.6073 8.95135 14.5728 9.54902C15.5396 10.1475 16.1869 10.9464 16.6223 11.7549C17.0591 12.5661 17.2798 13.3827 17.3907 14.0002C17.4459 14.3078 17.4733 14.563 17.4868 14.7391C17.4936 14.8271 17.4969 14.8951 17.4985 14.9397C17.4993 14.962 17.4997 14.9785 17.4998 14.9887C17.4999 14.9938 17.5 14.9973 17.5 14.9992C17.5 15.0002 17.5 15.0007 17.5 15.0009C17.5 15.0009 17.5 15.0009 17.5 15.0007C17.5 15.0007 17.5 15.0005 17.5 15.0004C17.5 15.0002 17.5 15 18 15C18.5 15 18.5 14.9997 18.5 14.9994C18.5 14.9993 18.5 14.9989 18.5 14.9986C18.5 14.9981 18.5 14.9974 18.5 14.9966C18.5 14.9951 18.5 14.9931 18.5 14.9907C18.4999 14.9859 18.4998 14.9794 18.4997 14.9713C18.4994 14.9552 18.4989 14.9325 18.4978 14.9039C18.4958 14.8465 18.4918 14.7649 18.4839 14.6624C18.4681 14.4577 18.4369 14.1687 18.3749 13.8235C18.2514 13.1352 18.0034 12.2107 17.5027 11.2808C17.0006 10.3483 16.2416 9.40602 15.0991 8.69875C13.9552 7.99061 12.4552 7.53571 10.5 7.53571V8.53571Z" fill="black" mask="url(#path-2-inside-1_72_62)"/>
</svg>
