<svg width="14" height="14" viewBox="0 0 14 14" fill="none" xmlns="http://www.w3.org/2000/svg">
<mask id="path-1-inside-1_72_73" fill="white">
<path fill-rule="evenodd" clip-rule="evenodd" d="M7 7C9.20914 7 11 5.433 11 3.5C11 1.567 9.20914 0 7 0C4.79086 0 3 1.567 3 3.5C3 5.433 4.79086 7 7 7ZM7 7.5C0 7.5 0 14 0 14H14C14 14 14 7.5 7 7.5Z"/>
</mask>
<path d="M0 14H-1V15H0V14ZM14 14V15H15L15 14L14 14ZM10 3.5C10 4.75946 8.78646 6 7 6V8C9.63182 8 12 6.10653 12 3.5H10ZM7 1C8.78646 1 10 2.24054 10 3.5H12C12 0.893465 9.63182 -1 7 -1V1ZM4 3.5C4 2.24054 5.21354 1 7 1V-1C4.36818 -1 2 0.893465 2 3.5H4ZM7 6C5.21354 6 4 4.75946 4 3.5H2C2 6.10653 4.36818 8 7 8V6ZM0 14C1 14 1 14.0005 0.999999 14.001C0.999999 14.0011 0.999999 14.0016 0.999998 14.0018C0.999997 14.0023 0.999996 14.0027 0.999994 14.0031C0.999992 14.0037 0.999989 14.004 0.99999 14.0038C0.999992 14.0036 1.00001 14.0019 1.00006 13.9987C1.00017 13.9924 1.00044 13.9803 1.00107 13.9629C1.00232 13.928 1.005 13.8718 1.01073 13.7974C1.0222 13.6483 1.04571 13.4281 1.09365 13.161C1.19031 12.6225 1.38188 11.9179 1.75547 11.2241C2.1262 10.5356 2.67076 9.86653 3.47948 9.36589C4.28539 8.86699 5.41048 8.5 7 8.5V6.5C5.08952 6.5 3.58961 6.94551 2.42677 7.66536C1.26674 8.38347 0.498804 9.33939 -0.00547117 10.2759C-0.50688 11.2071 -0.75281 12.1275 -0.874896 12.8077C-0.936332 13.15 -0.96751 13.4377 -0.983383 13.644C-0.991333 13.7474 -0.995483 13.8308 -0.997647 13.8911C-0.99873 13.9213 -0.999318 13.9457 -0.999636 13.964C-0.999794 13.9731 -0.999885 13.9807 -0.999937 13.9867C-0.999962 13.9898 -0.999978 13.9924 -0.999988 13.9946C-0.999992 13.9957 -0.999995 13.9967 -0.999997 13.9976C-0.999998 13.998 -0.999999 13.9986 -0.999999 13.9989C-1 13.9994 -1 14 0 14ZM14 13H0V15H14V13ZM7 8.5C8.58952 8.5 9.71461 8.86699 10.5205 9.36589C11.3292 9.86653 11.8738 10.5356 12.2445 11.2241C12.6181 11.9179 12.8097 12.6225 12.9064 13.161C12.9543 13.4281 12.9778 13.6483 12.9893 13.7974C12.995 13.8718 12.9977 13.928 12.9989 13.9629C12.9996 13.9803 12.9998 13.9924 12.9999 13.9987C13 14.0019 13 14.0036 13 14.0038C13 14.004 13 14.0037 13 14.0031C13 14.0027 13 14.0023 13 14.0018C13 14.0016 13 14.0011 13 14.001C13 14.0005 13 14 14 14C15 14 15 13.9994 15 13.9989C15 13.9986 15 13.998 15 13.9976C15 13.9967 15 13.9957 15 13.9946C15 13.9924 15 13.9898 14.9999 13.9867C14.9999 13.9807 14.9998 13.9731 14.9996 13.964C14.9993 13.9457 14.9987 13.9213 14.9976 13.8911C14.9955 13.8308 14.9913 13.7474 14.9834 13.644C14.9675 13.4377 14.9363 13.15 14.8749 12.8077C14.7528 12.1275 14.5069 11.2071 14.0055 10.2759C13.5012 9.33939 12.7333 8.38347 11.5732 7.66536C10.4104 6.94551 8.91048 6.5 7 6.5V8.5Z" fill="white" mask="url(#path-1-inside-1_72_73)"/>
</svg>
